<svg xmlns="http://www.w3.org/2000/svg" width="36.539" height="38.975" viewBox="0 0 36.539 38.975">
  <path id="Path_217" data-name="Path 217" d="M5.41,30.571H8.09v4.75a3.654,3.654,0,0,0,3.654,3.654H28.8a3.654,3.654,0,0,0,3.654-3.654h0v-4.75h2.68a3.41,3.41,0,0,0,0-6.821h-2.68V19.634l3.569-3.563a3.417,3.417,0,0,0,0-4.829l-.116-.11a3.4,3.4,0,0,0-3.453-.822V3.654A3.654,3.654,0,0,0,28.8,0H11.744A3.654,3.654,0,0,0,8.09,3.654V6.741a1.611,1.611,0,0,0-.152.128l-.116.11a3.417,3.417,0,0,0,0,4.829l.268.268V23.75H5.41a3.41,3.41,0,0,0,0,6.821Zm5.115,4.75v-4.75h3.167v5.968H11.744A1.218,1.218,0,0,1,10.526,35.321Zm19.487,0A1.218,1.218,0,0,1,28.8,36.539H26.846V30.571h3.167ZM23.923,23.75a6.09,6.09,0,0,0,2.436-4.872,5.968,5.968,0,0,0-.53-2.436L29.891,20.5l.122.1V23.75Zm-7.308-4.872a3.654,3.654,0,1,1,3.654,3.654A3.654,3.654,0,0,1,16.616,18.878ZM34.185,12.85l.11.11a.97.97,0,0,1,.286.688.98.98,0,0,1-.3.7l-3.544,3.544-3.544-3.544a.98.98,0,0,1-.286-.694.97.97,0,0,1,.286-.688l.11-.11a.987.987,0,0,1,1.388,0l1.188,1.181a1.218,1.218,0,0,0,1.717,0l.481-.475h0l.7-.7a.98.98,0,0,1,1.386-.032l.027.026ZM16.664,2.436h7.21v.609h-7.21Zm-6.492,8.276h0L9.564,10.1a.98.98,0,0,1-.286-.694.97.97,0,0,1,.286-.688l.11-.11a.987.987,0,0,1,1.388,0l1.188,1.181a1.218,1.218,0,0,0,1.717,0l1.188-1.181a.98.98,0,0,1,1.387,0l0,0,.11.11a.917.917,0,0,1-.037,1.364l-3.544,3.544Zm.353,3.8,1.705,1.7a1.218,1.218,0,0,0,1.717,0l4.409-4.4a3.417,3.417,0,0,0,0-4.829l-.116-.11a3.417,3.417,0,0,0-4.829,0l-.323.323-.329-.323a3.38,3.38,0,0,0-2.235-.98V3.654a1.218,1.218,0,0,1,1.218-1.218h2.485V4.263a1.218,1.218,0,0,0,1.218,1.218h9.646a1.218,1.218,0,0,0,1.218-1.218V2.436H28.8a1.218,1.218,0,0,1,1.218,1.218V10.8a3.4,3.4,0,0,0-4.415.335l-.116.11a3.381,3.381,0,0,0-1,2.436,3.338,3.338,0,0,0,.171,1.017,6.09,6.09,0,1,0-8.039,9.056h-6.09ZM5.41,26.186H35.129a.974.974,0,0,1,0,1.949h-9.5a1.218,1.218,0,0,0-1.218,1.218v7.186H16.128V29.353a1.218,1.218,0,0,0-1.218-1.218H5.41a.974.974,0,1,1,0-1.949Z" transform="translate(-2)" fill="#39475b"/>
</svg>
