<svg xmlns="http://www.w3.org/2000/svg" width="14.788" height="13.238" viewBox="0 0 14.788 13.238">
  <g id="Group_764" data-name="Group 764" transform="translate(860.131 -88.069)">
    <path id="Path_212" data-name="Path 212" d="M-851.544,96.471l-1.556-1.257,1.957.412c.637.134.058,1.214-.4.845Zm-12.633-.175,4.7-5.45a.533.533,0,0,1,.121-.1l.42-1.346a.531.531,0,0,1,.957-.171l1.793,2.687a1.761,1.761,0,0,1,.962-.284,1.769,1.769,0,0,1,1.77,1.77,1.767,1.767,0,0,1-.767,1.458l1.395,2.09a.533.533,0,0,1-.449.88l-1.853-.17a.532.532,0,0,1-.237-.061l-.725.238a2.485,2.485,0,0,1-.9,3.051,2.481,2.481,0,0,1-3.8-1.507l-1.129.371a.527.527,0,0,1-.226.023,1.953,1.953,0,0,1-2.167-3.243.526.526,0,0,1,.137-.232Zm4.489-2.134a1.628,1.628,0,0,1,1.628,1.628,1.628,1.628,0,0,1-1.628,1.628,1.628,1.628,0,0,1-1.628-1.628A1.628,1.628,0,0,1-859.688,94.162Zm-3.225,4.8-.948-1.42A.893.893,0,0,0-862.914,98.964Zm5.8-.8-2.672.878a1.429,1.429,0,0,0,2.2.957,1.423,1.423,0,0,0,.475-1.835Zm-2.026-6.1-4.005,4.648,1.271,1.9,5.828-1.915-3.095-4.637Zm3.331-3.582-.31,1.976-.622-1.9C-856.938,87.94-855.713,87.9-855.8,88.483Zm2.588.788-1.257,1.556.412-1.958C-853.926,88.233-852.846,88.812-853.216,89.271Zm1.848,1.976-1.867.721,1.336-1.49c.435-.484,1.081.557.531.769Zm.612,2.635-1.977-.31,1.9-.621C-850.213,92.749-850.174,93.974-850.757,93.882Z" transform="translate(5 0)" fill="#fff" fill-rule="evenodd"/>
  </g>
</svg>
