<svg xmlns="http://www.w3.org/2000/svg" width="28.501" height="25.514" viewBox="0 0 28.501 25.514">
  <g id="Group_764" data-name="Group 764" transform="translate(860.131 -88.069)">
    <path id="Path_212" data-name="Path 212" d="M-838.946,104.261l-3-2.422,3.772.795c1.228.259.112,2.34-.772,1.628Zm-24.347-.338,9.052-10.5a1.027,1.027,0,0,1,.234-.2l.809-2.594a1.024,1.024,0,0,1,1.845-.33l3.456,5.178a3.394,3.394,0,0,1,1.854-.547,3.41,3.41,0,0,1,3.411,3.41,3.406,3.406,0,0,1-1.478,2.81l2.688,4.028a1.028,1.028,0,0,1-.865,1.7l-3.571-.327a1.026,1.026,0,0,1-.456-.118l-1.4.46a4.789,4.789,0,0,1-1.738,5.881,4.782,4.782,0,0,1-7.319-2.9l-2.176.715a1.016,1.016,0,0,1-.435.045c-4.053,2.511-8.046-3.471-4.177-6.251a1.012,1.012,0,0,1,.265-.448Zm8.652-4.112a3.137,3.137,0,0,1,3.138,3.138,3.138,3.138,0,0,1-3.138,3.139,3.138,3.138,0,0,1-3.138-3.139A3.137,3.137,0,0,1-854.641,99.811Zm-6.216,9.255-1.827-2.737A1.722,1.722,0,0,0-860.857,109.066Zm11.187-1.536-5.15,1.693a2.755,2.755,0,0,0,4.234,1.844,2.742,2.742,0,0,0,.916-3.536Zm-3.905-11.76-7.719,8.957,2.45,3.671,11.233-3.691-5.964-8.937Zm6.419-6.9-.6,3.809-1.2-3.664C-849.342,87.82-846.98,87.745-847.156,88.867Zm4.988,1.518-2.422,3,.795-3.773C-843.537,88.385-841.454,89.5-842.168,90.386Zm3.561,3.808-3.6,1.389,2.575-2.871c.838-.933,2.083,1.074,1.023,1.482Zm1.18,5.079-3.809-.6,3.665-1.2C-836.38,97.088-836.305,99.449-837.428,99.273Z" transform="translate(5)" fill="#253858" fill-rule="evenodd"/>
  </g>
</svg>
