<svg xmlns="http://www.w3.org/2000/svg" width="20.166" height="23.479" viewBox="0 0 20.166 23.479">
  <g id="Group_765" data-name="Group 765" transform="translate(-29.92 -24.396)">
    <path id="Path_891" data-name="Path 891" d="M49.818,32.632l.267-6.961A1.246,1.246,0,0,0,48.811,24.4l-6.931.3a1.106,1.106,0,0,0-.681.3L30.21,35.949a1.1,1.1,0,0,0,.089,1.57l6.664,6.664a1.122,1.122,0,0,0,1.57.089L49.522,33.283A.951.951,0,0,0,49.818,32.632Zm-3.08-3.614a1.392,1.392,0,1,1,1.392-1.392A1.391,1.391,0,0,1,46.738,29.018Z" transform="translate(0 0)" fill="#253858"/>
    <path id="Path_892" data-name="Path 892" d="M48.9,65.108l-9.034,9c-.3.385-.977.326-1.57-.089L32.643,68.4l-.652.948a1.125,1.125,0,0,0,.355,1.54l7.731,5.391a1.115,1.115,0,0,0,1.57-.207l7.464-10.752C49.23,65.167,49.023,64.99,48.9,65.108Z" transform="translate(-1.337 -28.626)" fill="#253858"/>
  </g>
</svg>
