<svg xmlns="http://www.w3.org/2000/svg" width="26.65" height="14.995" viewBox="0 0 26.65 14.995">
  <g id="Group_3" data-name="Group 3" transform="translate(-2.6 -23.3)">
    <path id="Path_213" data-name="Path 213" d="M71.867,46.3a4.343,4.343,0,0,1-2.836,1.039,4.456,4.456,0,0,1-2.808-1.011,5.7,5.7,0,0,0-1.123,1.32,8.8,8.8,0,0,1,2.3,5.195c.505.028,1.067.056,1.657.056a16.075,16.075,0,0,0,4.717-.646.608.608,0,0,0,.421-.618A7.573,7.573,0,0,0,71.867,46.3Z" transform="translate(-44.95 -16.542)" fill="#253858"/>
    <circle id="Ellipse_7" data-name="Ellipse 7" cx="3.033" cy="3.033" r="3.033" transform="translate(21.048 23.3)" fill="#253858"/>
    <path id="Path_214" data-name="Path 214" d="M10.547,46.3a4.356,4.356,0,0,1-2.808,1.011A4.456,4.456,0,0,1,4.931,46.3,7.451,7.451,0,0,0,2.6,51.607a.643.643,0,0,0,.421.618,16.25,16.25,0,0,0,4.717.646c.59,0,1.151-.028,1.657-.056a8.8,8.8,0,0,1,2.3-5.195A6.59,6.59,0,0,0,10.547,46.3Z" transform="translate(0 -16.542)" fill="#253858"/>
    <circle id="Ellipse_8" data-name="Ellipse 8" cx="3.033" cy="3.033" r="3.033" transform="translate(4.706 23.3)" fill="#253858"/>
    <path id="Path_215" data-name="Path 215" d="M39.647,53.2a4.405,4.405,0,0,1-5.616,0A7.573,7.573,0,0,0,31.7,58.535a.643.643,0,0,0,.421.618,17.552,17.552,0,0,0,9.435,0,.608.608,0,0,0,.421-.618A7.357,7.357,0,0,0,39.647,53.2Z" transform="translate(-20.929 -21.504)" fill="#253858"/>
    <circle id="Ellipse_9" data-name="Ellipse 9" cx="3.033" cy="3.033" r="3.033" transform="translate(12.877 25.238)" fill="#253858"/>
  </g>
</svg>
