<svg xmlns="http://www.w3.org/2000/svg" width="38.935" height="26.705" viewBox="0 0 38.935 26.705">
  <path id="Path_221" data-name="Path 221" d="M40.813,22.318,33.026,11.656a.649.649,0,0,0-.907-.143l-.008.006-4.328,3.245a1.3,1.3,0,0,0-.493,1.3l-3.894.156A9.085,9.085,0,0,0,19.5,17.3a4.983,4.983,0,0,0-2.421-.13l-2.206.084a1.2,1.2,0,0,0-.591-.967L9.833,13.447a.649.649,0,0,0-.9.193l-.005.008L2.1,24.615a.649.649,0,0,0,.21.894l0,0,4.367,2.661a1.219,1.219,0,0,0,1.09.117l.993.649a2.258,2.258,0,0,0,1.376,3.6,2.3,2.3,0,0,0,1.619,2.816,2.255,2.255,0,0,0,.509.078h.084a2.254,2.254,0,0,0,.986-.234,2.312,2.312,0,0,0,.545,1.012,2.252,2.252,0,0,0,3.024.253,2.319,2.319,0,0,0,.526.915,2.277,2.277,0,0,0,3.212.11l.707-.649,1.194.779a2.271,2.271,0,0,0,3.5-1.687,2.274,2.274,0,0,0,.753.136,2.3,2.3,0,0,0,2.3-2.284,2.3,2.3,0,0,0,2.44-2.648,2.278,2.278,0,0,0,1.609-3.394l2.09-1.207a1.284,1.284,0,0,0,.286.078h.188a1.3,1.3,0,0,0,.779-.26l4.186-3.134A.649.649,0,0,0,40.813,22.318Zm-17.333-4.8,4.614-.182,3.485,4.653,2.693,3.6-2.116,1.22-1.856-1.2c-.519-.331-1.045-.688-1.557-1.071-.389-.292-.772-.6-1.175-.934l-3.07-2.6a2.913,2.913,0,0,0-3.446-.253l-3.965,2.479a1.314,1.314,0,0,1-1.3-2.284l4.127-2.382A7.786,7.786,0,0,1,23.48,17.516Zm-16.9,7.833a1.3,1.3,0,1,1,1.3-1.3A1.3,1.3,0,0,1,6.582,25.348Zm3,4.938a.965.965,0,0,1,.311-.649l.324-.305h0l1.2-1.116a.968.968,0,0,1,.649-.26H12.1a.987.987,0,0,1,.7.331.973.973,0,0,1-.045,1.376l-1.519,1.4a.973.973,0,0,1-1.376-.05l-.019-.021A.966.966,0,0,1,9.58,30.287Zm2.713,3.894a.987.987,0,0,1-.7-.331.973.973,0,0,1,.045-1.376l.7-.649,1.3-1.233h0l1.421-1.3a.96.96,0,0,1,.649-.26,1.014,1.014,0,0,1,.74.331.973.973,0,0,1-.045,1.376l-1.214,1.136-1.3,1.188h0l-.954.889a1.011,1.011,0,0,1-.642.208Zm2.492,1.168a.973.973,0,0,1,.045-1.376L16.841,32.1l1.246-1.162a.968.968,0,0,1,.649-.26h.032a.987.987,0,0,1,.7.331.973.973,0,0,1-.045,1.376h0l-1.609,1.467-.318.3h0l-1.3,1.22a.98.98,0,0,1-1.385-.008c-.01-.01-.019-.02-.029-.031Zm3.55,1.175a.973.973,0,0,1,.045-1.376l.318-.3.694-.649a.968.968,0,0,1,.649-.26h.032a.987.987,0,0,1,.7.331.973.973,0,0,1-.045,1.376l-.993.928a.98.98,0,0,1-1.385-.053l-.017-.019Zm13.68-7.074a1.013,1.013,0,0,1-1.3.344,1.926,1.926,0,0,0-.24-.175L27.186,27.5h0a.83.83,0,0,0-.208-.1.649.649,0,0,0-.649,1.071,1.822,1.822,0,0,0,.331.195L29.9,30.806h.039a.986.986,0,0,1,.117,1.233,1.025,1.025,0,0,1-1.363.292l-.428-.273a2.174,2.174,0,0,0-.24-.188h0l-.85-.552h0l-1.947-1.265a.649.649,0,0,0-.785.078.561.561,0,0,0-.071.058h0a.58.58,0,0,0-.045.078.273.273,0,0,0-.071.253.283.283,0,0,0,0,.2.62.62,0,0,0,0,.13.7.7,0,0,0,.058.084.642.642,0,0,0,.078.117h0a1.8,1.8,0,0,0,.311.24l2.777,1.8a.974.974,0,0,1,.123,1.227,1.018,1.018,0,0,1-1.369.3l-.844-.552h-.071a2.37,2.37,0,0,0-.331-.26l-1.467-.941a.649.649,0,0,0-.759,1.053.67.67,0,0,0,.058.037l1.467.941a.993.993,0,0,1,.3,1.369,1.039,1.039,0,0,1-1.369.3l-1.077-.694a2.3,2.3,0,0,0-.428-2.511,2.254,2.254,0,0,0-.96-.6,2.258,2.258,0,0,0,.292-1.012A2.284,2.284,0,0,0,17.984,29.5a2.31,2.31,0,0,0-.571-1.09,2.271,2.271,0,0,0-3.141-.162,2.317,2.317,0,0,0-.519-.9,2.272,2.272,0,0,0-3.21-.112l0,0-.831.772-.993-.649,4.737-7.366.915-1.421,2.816-.1h.11l.24-.032-2.408,1.389a2.626,2.626,0,1,0,2.635,4.543l3.985-2.492a1.616,1.616,0,0,1,1.914.143l3.07,2.6c.422.357.824.681,1.239.986.539.4,1.09.785,1.635,1.129l2.07,1.3h.045a.987.987,0,0,1,.321,1.358l-.029.044Z" transform="translate(-2 -11.389)" fill="#39475b"/>
</svg>
