<svg id="Group_5" data-name="Group 5" xmlns="http://www.w3.org/2000/svg" width="35.777" height="35.799" viewBox="0 0 35.777 35.799">
  <path id="Path_218" data-name="Path 218" d="M183.066-61.969a12.739,12.739,0,0,1,1.431,5.838,12.851,12.851,0,0,1-12.805,12.843,12.883,12.883,0,0,1-12.843-12.843,12.859,12.859,0,0,1,12.843-12.843,12.9,12.9,0,0,1,5.875,1.431l2.3-2.3a15.949,15.949,0,0,0-8.173-2.26,15.977,15.977,0,0,0-15.969,15.969,15.977,15.977,0,0,0,15.969,15.969,15.945,15.945,0,0,0,15.931-15.969,15.948,15.948,0,0,0-2.26-8.173Z" transform="translate(-155.723 75.961)" fill="#39475b"/>
  <path id="Path_219" data-name="Path 219" d="M181.666-52.974a6.132,6.132,0,0,1,1.168.113l2.523-2.523a9.911,9.911,0,0,0-3.691-.716,9.933,9.933,0,0,0-9.943,9.943,9.933,9.933,0,0,0,9.943,9.943,9.958,9.958,0,0,0,9.943-9.943,10.215,10.215,0,0,0-.716-3.691l-2.523,2.523a5.848,5.848,0,0,1,.113,1.168,6.815,6.815,0,0,1-6.817,6.817,6.815,6.815,0,0,1-6.817-6.817A6.815,6.815,0,0,1,181.666-52.974Z" transform="translate(-165.697 65.987)" fill="#39475b"/>
  <path id="Path_220" data-name="Path 220" d="M210.8-77.926l-2.147-1.13a1.03,1.03,0,0,1-.49-.49L207-81.73a1.174,1.174,0,0,0-1.883-.264l-1.168,1.168a1.169,1.169,0,0,0-.339.829v2.6a1.6,1.6,0,0,1-.452,1.13L193.065-66.175a3.715,3.715,0,0,0-2.636-.075,3.925,3.925,0,0,0-2.674,3.126,3.953,3.953,0,0,0,4.519,4.482,3.927,3.927,0,0,0,3.088-2.712,3.815,3.815,0,0,0-.113-2.6l10.094-10.094a1.6,1.6,0,0,1,1.13-.452h2.6a1.168,1.168,0,0,0,.829-.339l1.168-1.168A1.188,1.188,0,0,0,210.8-77.926Z" transform="translate(-175.665 82.352)" fill="#39475b"/>
</svg>
