<svg xmlns="http://www.w3.org/2000/svg" width="23.469" height="25.246" viewBox="0 0 23.469 25.246">
  <g id="Group_1345" data-name="Group 1345" transform="translate(-162.264 160.327)">
    <path id="Path_972" data-name="Path 972" d="M175.884-135.243a11.516,11.516,0,0,1-3.605.037.83.83,0,0,1-.6-.536l-.68-2.341a1.359,1.359,0,0,0-.543-.693L167.99-140.2a1.317,1.317,0,0,0-.869-.114l-2.322.622a.815.815,0,0,1-.764-.24,11.472,11.472,0,0,1-1.724-2.966.831.831,0,0,1,.164-.788l1.746-1.821a1.361,1.361,0,0,0,.328-.817v-2.846a1.316,1.316,0,0,0-.335-.81l-1.741-1.74a.807.807,0,0,1-.171-.781,12.8,12.8,0,0,1,.751-1.506,12.775,12.775,0,0,1,.957-1.44.832.832,0,0,1,.765-.25l2.484.61a1.362,1.362,0,0,0,.872-.124l2.465-1.423a1.316,1.316,0,0,0,.534-.7l.628-2.343a.8.8,0,0,1,.591-.537,11.466,11.466,0,0,1,3.384.016.815.815,0,0,1,.59.542l.622,2.322a1.317,1.317,0,0,0,.534.7l2.465,1.423a1.317,1.317,0,0,0,.869.114l2.322-.622a.814.814,0,0,1,.764.239,11.509,11.509,0,0,1,1.772,3.084.818.818,0,0,1-.176.783l-1.634,1.633a1.316,1.316,0,0,0-.335.81v2.846a1.315,1.315,0,0,0,.335.81l1.658,1.658a.822.822,0,0,1,.178.783,12.608,12.608,0,0,1-.817,1.667,12.832,12.832,0,0,1-.957,1.441.812.812,0,0,1-.763.241l-2.206-.591a1.317,1.317,0,0,0-.869.114l-2.465,1.423a1.315,1.315,0,0,0-.534.7l-.613,2.29A.829.829,0,0,1,175.884-135.243ZM168.3-147.7A5.7,5.7,0,0,1,174-153.4a5.7,5.7,0,0,1,5.693,5.693A5.7,5.7,0,0,1,174-142.012,5.7,5.7,0,0,1,168.3-147.7Z" transform="translate(0 0)" fill="#c9ced6" fill-rule="evenodd"/>
  </g>
</svg>
